<svg width="22" height="22" viewBox="0 0 22 22" fill="none" xmlns="http://www.w3.org/2000/svg">
<path d="M11 8.24999C13.0258 8.24999 14.6667 6.60916 14.6667 4.58332C14.6667 2.55749 13.0258 0.916656 11 0.916656C8.97417 0.916656 7.33333 2.55749 7.33333 4.58332C7.33333 6.60916 8.97417 8.24999 11 8.24999ZM11 2.74999C12.0083 2.74999 12.8333 3.57499 12.8333 4.58332C12.8333 5.59166 12.0083 6.41666 11 6.41666C9.99167 6.41666 9.16667 5.59166 9.16667 4.58332C9.16667 3.57499 9.99167 2.74999 11 2.74999ZM11 10.5875C8.83667 8.57082 5.94 7.33332 2.75 7.33332V17.4167C5.94 17.4167 8.83667 18.6542 11 20.6708C13.1633 18.6633 16.06 17.4167 19.25 17.4167V7.33332C16.06 7.33332 13.1633 8.57082 11 10.5875ZM17.4167 15.7025C15.0975 16.0142 12.8975 16.8942 11 18.2875C9.11167 16.8942 6.9025 16.005 4.58333 15.6933V9.32249C6.50833 9.67082 8.29583 10.56 9.75333 11.9167L11 13.09L12.2467 11.9258C13.7042 10.5692 15.4917 9.67999 17.4167 9.33166V15.7025Z" fill="#8E99B7"/>
</svg>
