<svg width="15" height="8" viewBox="0 0 15 8" fill="none" xmlns="http://www.w3.org/2000/svg">
    <path d="M14.4644 1.14357C14.1686 1.14357 13.9288 1.39934 13.9288 1.71487V3.42872H12.3221V1.71487C12.3221 1.39934 12.0823 1.14357 11.7865 1.14357C11.4907 1.14357 11.2509 1.39934 11.2509 1.71487V3.42872H6.38253C6.08672 1.56213 4.42836 0.304721 2.67843 0.620244C0.928497 0.935734 -0.250321 2.70469 0.0454503 4.57128C0.341222 6.43787 1.99961 7.69528 3.74955 7.37976C5.09808 7.1366 6.15457 6.00968 6.38249 4.57128H14.4644C14.7602 4.57128 15 4.31551 15 3.99998V1.71483C15 1.39934 14.7602 1.14357 14.4644 1.14357ZM3.21725 6.28513C2.03407 6.28513 1.07492 5.26204 1.07492 3.99998C1.07492 2.73792 2.03407 1.71483 3.21725 1.71483C4.40043 1.71483 5.35958 2.73792 5.35958 3.99998C5.35958 5.26204 4.40043 6.28513 3.21725 6.28513Z" fill="#8555F9"/>
</svg>