<svg width="16" height="17" viewBox="0 0 16 17" fill="none" xmlns="http://www.w3.org/2000/svg">
    <path d="M13.6569 11.2496C12.7855 10.3783 11.7484 9.73328 10.6168 9.34281C11.8288 8.50809 12.625 7.11112 12.625 5.53149C12.625 2.98128 10.5502 0.906494 8 0.906494C5.44978 0.906494 3.375 2.98128 3.375 5.53149C3.375 7.11112 4.17122 8.50809 5.38319 9.34281C4.25163 9.73328 3.2145 10.3783 2.34316 11.2496C0.832156 12.7607 0 14.7696 0 16.9065H1.25C1.25 13.1845 4.27803 10.1565 8 10.1565C11.722 10.1565 14.75 13.1845 14.75 16.9065H16C16 14.7696 15.1678 12.7607 13.6569 11.2496ZM8 8.90649C6.13903 8.90649 4.625 7.39249 4.625 5.53149C4.625 3.67049 6.13903 2.15649 8 2.15649C9.86097 2.15649 11.375 3.67049 11.375 5.53149C11.375 7.39249 9.86097 8.90649 8 8.90649Z" fill="#8555F9"/>
</svg>