<svg width="22" height="22" viewBox="0 0 22 22" fill="none" xmlns="http://www.w3.org/2000/svg">
<path d="M11 5.49999C12.0083 5.49999 12.8333 6.32499 12.8333 7.33332C12.8333 8.34166 12.0083 9.16666 11 9.16666C9.99163 9.16666 9.16663 8.34166 9.16663 7.33332C9.16663 6.32499 9.99163 5.49999 11 5.49999ZM11 13.75C13.475 13.75 16.3166 14.9325 16.5 15.5833V16.5H5.49996V15.5925C5.68329 14.9325 8.52496 13.75 11 13.75ZM11 3.66666C8.97413 3.66666 7.33329 5.30749 7.33329 7.33332C7.33329 9.35916 8.97413 11 11 11C13.0258 11 14.6666 9.35916 14.6666 7.33332C14.6666 5.30749 13.0258 3.66666 11 3.66666ZM11 11.9167C8.55246 11.9167 3.66663 13.145 3.66663 15.5833V18.3333H18.3333V15.5833C18.3333 13.145 13.4475 11.9167 11 11.9167Z" fill="#8E99B7"/>
</svg>
