<svg width="22" height="22" viewBox="0 0 22 22" fill="none" xmlns="http://www.w3.org/2000/svg">
<path d="M20.1666 8.24999H15.7758L11.7608 2.23665C11.5866 1.97999 11.2933 1.85165 11 1.85165C10.7066 1.85165 10.4133 1.97999 10.2391 2.24582L6.22413 8.24999H1.83329C1.32913 8.24999 0.916626 8.66249 0.916626 9.16665C0.916626 9.24915 0.925793 9.33165 0.953293 9.41415L3.28163 17.9117C3.49246 18.6817 4.19829 19.25 5.04163 19.25H16.9583C17.8016 19.25 18.5075 18.6817 18.7275 17.9117L21.0558 9.41415L21.0833 9.16665C21.0833 8.66249 20.6708 8.24999 20.1666 8.24999ZM11 4.39999L13.5666 8.24999H8.43329L11 4.39999ZM16.9583 17.4167L5.05079 17.4258L3.03413 10.0833H18.975L16.9583 17.4167ZM11 11.9167C9.99163 11.9167 9.16663 12.7417 9.16663 13.75C9.16663 14.7583 9.99163 15.5833 11 15.5833C12.0083 15.5833 12.8333 14.7583 12.8333 13.75C12.8333 12.7417 12.0083 11.9167 11 11.9167Z" fill="#8E99B7"/>
</svg>
