<svg width="16" height="17" viewBox="0 0 16 17" fill="none" xmlns="http://www.w3.org/2000/svg">
    <g clip-path="url(#clip0)">
        <path d="M7.97344 14.8207H1.99334C1.62656 14.8207 1.32891 14.523 1.32891 14.1563V2.19614C1.32891 1.82936 1.62659 1.53171 1.99334 1.53171H7.97344C8.34087 1.53171 8.63787 1.23471 8.63787 0.867269C8.63787 0.499831 8.34087 0.202769 7.97344 0.202769H1.99334C0.894344 0.202769 0 1.09714 0 2.19614V14.1563C0 15.2553 0.894344 16.1496 1.99334 16.1496H7.97344C8.34087 16.1496 8.63787 15.8526 8.63787 15.4852C8.63787 15.1177 8.34087 14.8207 7.97344 14.8207Z" fill="#8555F9"/>
        <path d="M15.8018 7.70311L11.7619 3.7164C11.5015 3.45858 11.0802 3.46193 10.8224 3.72305C10.5646 3.98418 10.5672 4.40477 10.8291 4.66258L13.7161 7.51174H5.97987C5.61243 7.51174 5.31543 7.80874 5.31543 8.17618C5.31543 8.54361 5.61243 8.84065 5.97987 8.84065H13.7161L10.8291 11.6898C10.5673 11.9476 10.5653 12.3682 10.8224 12.6293C10.9526 12.7609 11.1241 12.8273 11.2955 12.8273C11.4643 12.8273 11.633 12.7636 11.7619 12.636L15.8018 8.64924C15.9281 8.52433 15.9998 8.35421 15.9998 8.17615C15.9998 7.99815 15.9287 7.82871 15.8018 7.70311Z" fill="#8555F9"/>
    </g>
    <defs>
        <clipPath id="clip0">
            <rect width="16" height="16" fill="white" transform="translate(0 0.176208)"/>
        </clipPath>
    </defs>
</svg>