<svg width="22" height="19" viewBox="0 0 22 19" fill="none" xmlns="http://www.w3.org/2000/svg">
    <path d="M20.1666 7.24999H15.7758L11.7608 1.23665C11.5866 0.979987 11.2933 0.851654 11 0.851654C10.7066 0.851654 10.4133 0.979987 10.2391 1.24582L6.22413 7.24999H1.83329C1.32913 7.24999 0.916626 7.66249 0.916626 8.16665C0.916626 8.24915 0.925793 8.33165 0.953293 8.41415L3.28163 16.9117C3.49246 17.6817 4.19829 18.25 5.04163 18.25H16.9583C17.8016 18.25 18.5075 17.6817 18.7275 16.9117L21.0558 8.41415L21.0833 8.16665C21.0833 7.66249 20.6708 7.24999 20.1666 7.24999ZM11 3.39999L13.5666 7.24999H8.43329L11 3.39999ZM16.9583 16.4167L5.05079 16.4258L3.03413 9.08332H18.975L16.9583 16.4167ZM11 10.9167C9.99163 10.9167 9.16663 11.7417 9.16663 12.75C9.16663 13.7583 9.99163 14.5833 11 14.5833C12.0083 14.5833 12.8333 13.7583 12.8333 12.75C12.8333 11.7417 12.0083 10.9167 11 10.9167Z" fill="#8E99B7"/>
</svg>
