<svg width="16" height="16" viewBox="0 0 16 16" fill="none" xmlns="http://www.w3.org/2000/svg">
    <path d="M7.99996 2.49999C9.00829 2.49999 9.83329 3.32499 9.83329 4.33332C9.83329 5.34166 9.00829 6.16666 7.99996 6.16666C6.99163 6.16666 6.16663 5.34166 6.16663 4.33332C6.16663 3.32499 6.99163 2.49999 7.99996 2.49999ZM7.99996 10.75C10.475 10.75 13.3166 11.9325 13.5 12.5833V13.5H2.49996V12.5925C2.68329 11.9325 5.52496 10.75 7.99996 10.75ZM7.99996 0.666656C5.97413 0.666656 4.33329 2.30749 4.33329 4.33332C4.33329 6.35916 5.97413 7.99999 7.99996 7.99999C10.0258 7.99999 11.6666 6.35916 11.6666 4.33332C11.6666 2.30749 10.0258 0.666656 7.99996 0.666656ZM7.99996 8.91666C5.55246 8.91666 0.666626 10.145 0.666626 12.5833V15.3333H15.3333V12.5833C15.3333 10.145 10.4475 8.91666 7.99996 8.91666Z" fill="#8E99B7"/>
</svg>
