<svg width="18" height="21" viewBox="0 0 18 21" fill="none" xmlns="http://www.w3.org/2000/svg">
    <path d="M9 8.24999C11.0258 8.24999 12.6667 6.60916 12.6667 4.58332C12.6667 2.55749 11.0258 0.916656 9 0.916656C6.97417 0.916656 5.33333 2.55749 5.33333 4.58332C5.33333 6.60916 6.97417 8.24999 9 8.24999ZM9 2.74999C10.0083 2.74999 10.8333 3.57499 10.8333 4.58332C10.8333 5.59166 10.0083 6.41666 9 6.41666C7.99167 6.41666 7.16667 5.59166 7.16667 4.58332C7.16667 3.57499 7.99167 2.74999 9 2.74999ZM9 10.5875C6.83667 8.57082 3.94 7.33332 0.75 7.33332V17.4167C3.94 17.4167 6.83667 18.6542 9 20.6708C11.1633 18.6633 14.06 17.4167 17.25 17.4167V7.33332C14.06 7.33332 11.1633 8.57082 9 10.5875ZM15.4167 15.7025C13.0975 16.0142 10.8975 16.8942 9 18.2875C7.11167 16.8942 4.9025 16.005 2.58333 15.6933V9.32249C4.50833 9.67082 6.29583 10.56 7.75333 11.9167L9 13.09L10.2467 11.9258C11.7042 10.5692 13.4917 9.67999 15.4167 9.33166V15.7025Z" fill="#8E99B7"/>
</svg>
